<?xml version="1.0" standalone="no"?>
<!DOCTYPE svg PUBLIC "-//W3C//DTD SVG 20010904//EN"
 "http://www.w3.org/TR/2001/REC-SVG-20010904/DTD/svg10.dtd">
<svg version="1.0" xmlns="http://www.w3.org/2000/svg"
 width="84.000000pt" height="84.000000pt" viewBox="0 0 84.000000 84.000000"
 preserveAspectRatio="xMidYMid meet">

<g transform="translate(0.000000,84.000000) scale(0.100000,-0.100000)"
fill="#000000" stroke="none">
<path d="M252 693 c-54 -54 -104 -142 -123 -216 -18 -75 -6 -73 51 8 87 123
65 127 272 -48 226 -192 213 -183 243 -169 18 9 25 19 25 41 0 31 20 15 -318
263 l-93 69 18 29 c17 29 17 31 -4 51 l-21 22 -50 -50z m68 3 c0 -8 -4 -18
-10 -21 -5 -3 -10 -19 -10 -35 0 -23 -5 -30 -29 -35 -20 -4 -42 -24 -72 -66
-24 -33 -45 -56 -47 -51 -7 21 50 124 94 172 47 50 74 63 74 36z m114 -167
c104 -78 107 -81 91 -99 -17 -19 -20 -17 -114 62 -53 45 -100 85 -105 89 -9 8
0 29 12 29 4 0 56 -37 116 -81z m166 -124 c19 -23 -12 -55 -37 -39 -29 18 -38
41 -24 58 14 17 37 10 61 -19z m72 -51 c40 -28 46 -42 26 -62 -18 -18 -30 -15
-71 19 -36 30 -37 32 -21 50 22 24 21 24 66 -7z"/>
<path d="M160 332 l0 -68 74 -31 75 -31 25 39 c14 21 26 42 26 46 -1 10 -174
113 -189 113 -7 0 -11 -26 -11 -68z m108 -2 c39 -23 72 -44 72 -47 0 -3 -9
-18 -20 -33 l-20 -28 -60 25 -60 26 0 54 c0 30 3 52 8 50 4 -2 40 -23 80 -47z"/>
<path d="M151 190 c-32 -27 -33 -31 -21 -59 l12 -30 47 24 c25 13 55 30 65 38
19 14 18 16 -22 36 -23 11 -43 21 -44 21 -2 -1 -18 -14 -37 -30z m72 -4 c16
-13 14 -16 -28 -39 -40 -23 -47 -24 -52 -10 -4 10 3 25 21 40 31 27 35 27 59
9z"/>
<path d="M307 172 c-37 -41 -12 -62 44 -37 46 21 48 28 14 43 -34 16 -39 15
-58 -6z m39 -17 c-23 -17 -36 -19 -36 -6 0 11 18 19 40 20 11 0 10 -3 -4 -14z"/>
</g>
</svg>
