<?xml version="1.0" standalone="no"?>
<!DOCTYPE svg PUBLIC "-//W3C//DTD SVG 20010904//EN"
 "http://www.w3.org/TR/2001/REC-SVG-20010904/DTD/svg10.dtd">
<svg version="1.0" xmlns="http://www.w3.org/2000/svg"
 width="84.000000pt" height="84.000000pt" viewBox="0 0 84.000000 84.000000"
 preserveAspectRatio="xMidYMid meet">

<g transform="translate(0.000000,84.000000) scale(0.100000,-0.100000)"
fill="#000000" stroke="none">
<path d="M344 780 c-107 -22 -212 -110 -261 -215 -37 -81 -38 -203 -4 -282 13
-29 28 -53 32 -53 5 0 -1 19 -13 42 -20 37 -23 58 -23 148 0 96 3 110 28 158
60 114 162 182 284 190 105 7 134 -1 161 -46 34 -55 79 -82 136 -82 40 0 53 5
78 31 l31 30 -77 40 c-54 28 -89 39 -119 39 l-42 -1 28 -24 c36 -32 27 -32
-26 -1 -48 28 -147 40 -213 26z"/>
<path d="M370 690 c-87 -18 -163 -79 -200 -158 -31 -65 -31 -160 0 -225 59
-126 197 -185 337 -146 67 18 154 105 172 172 29 103 10 194 -55 266 -67 75
-166 110 -254 91z m100 -220 c28 0 50 -4 50 -8 0 -13 -80 -196 -91 -207 -5 -5
-9 15 -9 53 l0 62 -50 0 c-27 0 -50 4 -50 8 0 9 77 189 88 207 4 5 8 -18 10
-52 l3 -63 49 0z"/>
<path d="M720 615 c0 -3 10 -25 23 -48 19 -36 22 -57 22 -147 0 -94 -3 -110
-27 -155 -60 -114 -165 -185 -285 -193 -106 -7 -135 1 -158 44 -49 91 -170
117 -225 47 l-20 -26 75 -38 c73 -38 155 -53 155 -29 0 6 -3 10 -7 10 -5 0
-19 10 -33 21 -17 14 -7 11 32 -9 71 -37 139 -47 215 -32 76 16 125 42 183 96
91 85 133 209 110 326 -6 34 -21 79 -31 100 -18 34 -29 47 -29 33z"/>
</g>
</svg>
