<?xml version="1.0" standalone="no"?>
<!DOCTYPE svg PUBLIC "-//W3C//DTD SVG 20010904//EN"
 "http://www.w3.org/TR/2001/REC-SVG-20010904/DTD/svg10.dtd">
<svg version="1.0" xmlns="http://www.w3.org/2000/svg"
 width="84.000000pt" height="84.000000pt" viewBox="0 0 84.000000 84.000000"
 preserveAspectRatio="xMidYMid meet">

<g transform="translate(0.000000,84.000000) scale(0.100000,-0.100000)"
fill="#000000" stroke="none">
<path d="M123 743 c8 -86 46 -164 93 -193 39 -24 118 -29 155 -10 26 14 94 -8
140 -47 81 -68 111 -194 69 -291 -29 -68 -93 -126 -161 -146 -66 -20 -82 -20
-148 0 -175 52 -236 271 -115 413 39 45 33 57 -8 14 -99 -106 -96 -274 7 -375
77 -76 178 -96 298 -59 91 28 117 42 165 94 96 105 91 269 -12 369 l-37 36 33
19 c22 13 47 45 73 93 22 40 52 86 68 101 l27 28 -37 10 c-54 15 -168 14 -206
-3 -47 -19 -85 -68 -93 -121 -3 -25 -3 -52 0 -61 6 -15 11 -13 36 11 34 33 41
23 9 -11 -28 -30 -19 -51 27 -60 84 -16 164 -130 164 -234 0 -65 -33 -142 -76
-181 -60 -53 -67 -53 -31 -1 111 162 43 358 -147 422 -36 12 -69 26 -73 32 -4
8 0 9 11 5 10 -4 29 -10 42 -13 23 -6 24 -4 24 37 0 49 -27 101 -60 119 -11 6
-55 18 -97 26 -42 8 -90 21 -106 29 -17 8 -32 15 -35 15 -3 0 -2 -30 1 -67z
m597 42 c5 -3 -1 -23 -14 -43 -13 -20 -35 -58 -50 -85 -40 -71 -62 -87 -117
-87 -26 0 -50 4 -53 9 -7 11 58 97 84 111 11 6 20 15 20 21 0 13 -69 -23 -109
-56 l-31 -27 0 32 c0 91 79 145 198 136 35 -3 67 -8 72 -11z m-475 -31 c92
-19 121 -31 138 -58 18 -28 29 -84 17 -91 -11 -7 -110 32 -133 52 -9 9 -20 14
-22 11 -10 -9 42 -63 79 -83 42 -23 44 -30 14 -39 -41 -10 -72 -6 -106 14 -51
31 -77 83 -96 189 -6 31 -4 33 17 27 12 -4 54 -13 92 -22z"/>
<path d="M303 378 c-57 -111 -61 -123 -38 -114 9 3 27 9 40 12 l23 6 -24 -78
c-21 -68 -24 -97 -10 -83 19 18 143 235 139 242 -2 4 -13 5 -24 2 -26 -9 -24
3 11 49 17 22 30 43 30 48 0 4 -22 8 -50 8 l-50 0 -47 -92z m121 70 c-4 -7
-20 -29 -36 -49 -35 -45 -35 -58 -3 -51 14 2 25 0 25 -4 0 -10 -89 -152 -90
-143 0 4 7 26 15 49 20 55 20 53 -20 46 -19 -4 -35 -4 -35 -1 0 3 18 41 40 85
39 77 41 80 76 80 25 0 33 -3 28 -12z"/>
</g>
</svg>
