<svg width="80" height="80" viewBox="40 40" xmlns="http://www.w3.org/2000/svg"
    class="inline-block fill-current" style="color: #d5ff00;">
    <g transform="translate(0.000000,84.000000) scale(0.100000,-0.100000)">
        <path
            d="M344 780 c-107 -22 -212 -110 -261 -215 -37 -81 -38 -203 -4 -282 13 -29 28 -53 32 -53 5 0 -1 19 -13 42 -20 37 -23 58 -23 148 0 96 3 110 28 158 60 114 162 182 284 190 105 7 134 -1 161 -46 34 -55 79 -82 136 -82 40 0 53 5 78 31 l31 30 -77 40 c-54 28 -89 39 -119 39 l-42 -1 28 -24 c36 -32 27 -32 -26 -1 -48 28 -147 40 -213 26z"
            transform="scale(1)" fill="#d5ff00" /> <!-- Cambio de color a verde lim贸n -->
        <path
            d="M252 693 c-54 -54 -104 -142 -123 -216 -18 -75 -6 -73 51 8 87 123 65 127 272 -48 226 -192 213 -183 243 -169 18 9 25 19 25 41 0 31 20 15 -318 263 l-93 69 18 29 c17 29 17 31 -4 51 l-21 22 -50 -50z m68 3 c0 -8 -4 -18 -10 -21 -5 -3 -10 -19 -10 -35 0 -23 -5 -30 -29 -35 -20 -4 -42 -24 -72 -66 -24 -33 -45 -56 -47 -51 -7 21 50 124 94 172 47 50 74 63 74 36z m114 -167 c104 -78 107 -81 91 -99 -17 -19 -20 -17 -114 62 -53 45 -100 85 -105 89 -9 8 0 29 12 29 4 0 56 -37 116 -81z m166 -124 c19 -23 -12 -55 -37 -39 -29 18 -38 41 -24 58 14 17 37 10 61 -19z m72 -51 c40 -28 46 -42 26 -62 -18 -18 -30 -15 -71 19 -36 30 -37 32 -21 50 22 24 21 24 66 -7z"
            transform="scale(1)" fill="#d5ff00" /> <!-- Cambio de color a verde lim贸n -->
        <path
            d="M160 332 l0 -68 74 -31 75 -31 25 39 c14 21 26 42 26 46 -1 10 -174 113 -189 113 -7 0 -11 -26 -11 -68z m108 -2 c39 -23 72 -44 72 -47 0 -3 -9 -18 -20 -33 l-20 -28 -60 25 -60 26 0 54 c0 30 3 52 8 50 4 -2 40 -23 80 -47z"
            transform="scale(1)" fill="#d5ff00" /> <!-- Cambio de color a verde lim贸n -->
        <path
            d="M720 615 c0 -3 10 -25 23 -48 19 -36 22 -57 22 -147 0 -94 -3 -110 -27 -155 -60 -114 -165 -185 -285 -193 -106 -7 -135 1 -158 44 -49 91 -170 117 -225 47 l-20 -26 75 -38 c73 -38 155 -53 155 -29 0 6 -3 10 -7 10 -5 0 -19 10 -33 21 -17 14 -7 11 32 -9 71 -37 139 -47 215 -32 76 16 125 42 183 96 91 85 133 209 110 326 -6 34 -21 79 -31 100 -18 34 -29 47 -29 33z"
            transform="scale(1)" fill="#d5ff00" /> <!-- Cambio de color a verde lim贸n -->
    </g>
</svg>
